<mxfile host="app.diagrams.net" modified="2023-04-09T00:47:25.031Z" agent="Mozilla/5.0 (Macintosh; Intel Mac OS X 10_15_7) AppleWebKit/537.36 (KHTML, like Gecko) Chrome/111.0.0.0 Safari/537.36" etag="LI9XfMK_-N5q81DT2_zC" version="21.1.2" type="github">
  <diagram name="Flow" id="LB2H-MMfBmM7adMTfY_y">
    <mxGraphModel dx="794" dy="771" grid="1" gridSize="10" guides="1" tooltips="1" connect="1" arrows="1" fold="1" page="1" pageScale="1" pageWidth="850" pageHeight="1100" math="0" shadow="0">
      <root>
        <mxCell id="0" />
        <mxCell id="1" parent="0" />
        <mxCell id="tPJy2eTjiENu_VE3Vn32-2" value="&lt;h1&gt;&lt;font face=&quot;Comic Sans MS&quot;&gt;Angular&lt;/font&gt;&lt;/h1&gt;" style="whiteSpace=wrap;html=1;aspect=fixed;sketch=1;curveFitting=1;jiggle=2;fillColor=#FF0000;strokeColor=#b85450;" parent="1" vertex="1">
          <mxGeometry x="60" y="230" width="220" height="220" as="geometry" />
        </mxCell>
        <mxCell id="V_VT25S5VXliDtSvjIQO-1" value="&lt;h1&gt;.Net Core&lt;/h1&gt;" style="whiteSpace=wrap;html=1;aspect=fixed;sketch=1;curveFitting=1;jiggle=2;fillColor=#9933FF;strokeColor=#9673a6;" vertex="1" parent="1">
          <mxGeometry x="360" y="230" width="220" height="220" as="geometry" />
        </mxCell>
      </root>
    </mxGraphModel>
  </diagram>
</mxfile>
